<svg xmlns="http://www.w3.org/2000/svg" width="2in" height="2in" fill-rule="evenodd" clip-rule="evenodd" image-rendering="optimizeQuality" shape-rendering="geometricPrecision" text-rendering="geometricPrecision" viewBox="0 0 2000 2000"><path d="M1458 1853l-1190 0c-9,0 -17,-7 -17,-16l0 -180 -67 0c-10,0 -17,-7 -17,-17 0,-9 7,-16 17,-16l67 0 0 -223 -67 0c-10,0 -17,-8 -17,-17 0,-9 7,-16 17,-16l67 0 0 -223 -67 0c-10,0 -17,-8 -17,-17 0,-9 7,-17 17,-17l67 0 0 -222 -67 0c-10,0 -17,-8 -17,-17 0,-9 7,-17 17,-17l67 0 0 -223 -67 0c-10,0 -17,-7 -17,-16 0,-9 7,-17 17,-17l67 0 0 -223 -67 0c-10,0 -17,-7 -17,-16 0,-10 7,-17 17,-17l67 0 0 -180c0,-9 8,-16 17,-16l840 0 0 0 0 0 0 0 1 0 0 0 0 0 0 0 0 0 0 0 0 0 1 0 0 0 0 0 0 0 0 0 0 0 0 0 0 0 1 0 0 0c2,0 3,1 5,2l0 0 0 0 0 0 1 0 0 0 0 0 0 0 0 1 0 0 0 0 1 0 0 0 0 0 0 0 0 0 1 1 0 0 0 0 0 0 0 0 0 0 0 0 0 0 0 0 0 0 0 0 1 0 0 1 350 343 0 1 0 0 0 0 0 0 0 0 0 0 1 0 0 0 0 0 0 1 0 0 0 0 0 0 0 0 0 0 0 0 1 0 0 0c0,1 0,1 0,1l0 1 0 0 1 0 0 0 0 0c0,1 0,1 1,2l0 0 0 0 0 0c0,1 0,1 0,2l0 0 0 0 0 0 1 1 0 0 0 0 0 0 0 0 0 1 0 0 0 0 0 0 0 0 0 0 0 1 0 0 0 0 0 0 0 0 0 0 0 0 0 1 0 0 0 0 0 0 0 0 0 0 0 0 0 292 95 -95 65 -65c3,-3 7,-5 12,-5 4,0 8,2 11,5l170 170c7,7 7,17 0,24l-64 64 0 0 -1 0 -288 289 0 651c0,9 -7,16 -17,16zm-502 -486l-431 0c-10,0 -17,-8 -17,-17 0,-9 7,-17 17,-17l431 0c9,0 17,8 17,17 0,9 -8,17 -17,17zm92 -175l-523 0c-10,0 -17,-8 -17,-17 0,-9 7,-17 17,-17l523 0c10,0 17,8 17,17 0,9 -7,17 -17,17zm-42 -175l-481 0c-10,0 -17,-8 -17,-17 0,-9 7,-17 17,-17l481 0c9,0 16,8 16,17 0,9 -7,17 -16,17zm-143 -175l-338 0c-10,0 -17,-8 -17,-17 0,-9 7,-17 17,-17l338 0c9,0 17,8 17,17 0,9 -8,17 -17,17zm339 -175l-677 0c-10,0 -17,-8 -17,-17 0,-9 7,-17 17,-17l677 0c9,0 17,8 17,17 0,9 -8,17 -17,17zm-796 990l-121 0 0 163 1157 0 0 -601 -119 119 -1 1 0 0 0 0 0 0 0 0 0 0 0 0 0 0 -1 0 0 0 0 0 0 1 -1 0 0 0 0 0 0 0 0 0 0 0 0 1 0 0 -1 0 0 0 0 0 0 0 0 0 0 0 0 0 -1 0 0 0 0 1 0 0 0 0 0 0 0 0 0 0 -1 0 0 0 0 0 0 0 0 0 0 0 0 0 0 0 -1 0 0 0 0 0 0 0 0 0 0 1 0 0 0 0 -1 0 0 0 0 0 0 0 0 0 0 0 0 0 -1 0 0 0 0 0 0 0 0 0 0 0 0 0 0 0 -210 40c-2,1 -3,1 -4,1 -4,0 -8,-2 -11,-5 -4,-4 -6,-10 -5,-15l40 -210 0 0 0 0 0 -1 0 0 0 0 1 0 0 0 0 0 0 0 0 0 0 -1 0 0 0 0 0 0 0 0 0 0 0 0 0 -1 0 0 0 0 0 0 0 0 0 -1 1 0 0 0c0,-2 1,-3 2,-4l0 0 0 0 0 0 1 0 0 0 0 -1 0 0 0 0 0 0 313 -313 0 -308 -334 0c-9,0 -17,-7 -17,-17l0 -327 -806 0 0 163 121 0c9,0 17,7 17,17 0,9 -8,16 -17,16l-121 0 0 223 121 0c9,0 17,8 17,17 0,9 -8,16 -17,16l-121 0 0 223 121 0c9,0 17,8 17,17 0,9 -8,17 -17,17l-121 0 0 222 121 0c9,0 17,8 17,17 0,9 -8,17 -17,17l-121 0 0 223 121 0c9,0 17,7 17,16 0,9 -8,17 -17,17l-121 0 0 223 121 0c9,0 17,7 17,16 0,10 -8,17 -17,17zm1322 -772l-146 -146 -112 112 0 0 -306 306 146 146 137 -136 281 -282zm-122 -169l146 146 41 -41 -146 -146 -41 41zm-455 475l-30 155 155 -30 -125 -125zm267 -700l-293 -288 0 288 293 0z"/><path fill="#d43d70" d="M525 633l677 0c9,0 17,8 17,17 0,9 -8,17 -17,17l-677 0c-10,0 -17,-8 -17,-17 0,-9 7,-17 17,-17zm0 175l338 0c9,0 17,8 17,17 0,9 -8,17 -17,17l-338 0c-10,0 -17,-8 -17,-17 0,-9 7,-17 17,-17zm0 175l481 0c9,0 16,8 16,17 0,9 -7,17 -16,17l-481 0c-10,0 -17,-8 -17,-17 0,-9 7,-17 17,-17zm0 175l523 0c10,0 17,8 17,17 0,9 -7,17 -17,17l-523 0c-10,0 -17,-8 -17,-17 0,-9 7,-17 17,-17zm0 175l431 0c9,0 17,8 17,17 0,9 -8,17 -17,17l-431 0c-10,0 -17,-8 -17,-17 0,-9 7,-17 17,-17zm797 6l0 0zm0 0l0 0zm0 0l0 0zm-1 0l0 0zm-6 4l0 0zm-1 0l0 0zm0 0l0 0zm0 0l0 0zm-189 -191l0 0zm0 0l0 0zm0 -1l0 0zm0 0l0 0zm3 -5l0 0zm1 0l0 0zm0 -1l0 0zm-844 675l1157 0 0 -601 -119 119 -1 1 0 0 0 0 0 0 0 0 -1 0 0 0 0 1 -1 0 0 0 0 0 0 0 0 0 0 0 0 1 0 0 -1 0 0 0 0 0 0 0 0 0 0 0 0 0 -1 0 0 0 0 1 0 0 0 0 0 0 0 0 0 0 -1 0 0 0 0 0 0 0 0 0 0 0 0 0 0 0 -1 0 0 0 0 0 0 0 0 0 0 1 0 0 0 0 -1 0 0 0 0 0 0 0 0 0 0 0 -1 0 0 0 0 0 0 0 0 0 -210 40c-2,1 -3,1 -4,1 -4,0 -8,-2 -11,-5 -4,-4 -6,-10 -5,-15l40 -210 0 0 0 0 0 -1 0 0 0 0 1 0 0 0 0 0 0 0 0 0 0 -1 0 0 0 0 0 0 0 0 0 -1 0 0 0 0 0 -1 1 0 0 0c0,-2 1,-3 2,-4l0 0 0 0 1 0 0 -1 0 0 0 0 313 -313 0 -308 -334 0c-9,0 -17,-7 -17,-17l0 -327 -806 0 0 163 121 0c9,0 17,7 17,17 0,9 -8,16 -17,16l-121 0 0 223 121 0c9,0 17,8 17,17 0,9 -8,16 -17,16l-121 0 0 223 121 0c9,0 17,8 17,17 0,9 -8,17 -17,17l-121 0 0 222 121 0c9,0 17,8 17,17 0,9 -8,17 -17,17l-121 0 0 223 121 0c9,0 17,7 17,16 0,9 -8,17 -17,17l-121 0 0 223 121 0c9,0 17,7 17,16 0,10 -8,17 -17,17l-121 0 0 163z"/><polygon fill="#ff7b8a" points="1125 203 1125 491 1418 491"/><polygon fill="#ff7b8a" points="1470 851 1164 1157 1310 1303 1447 1167 1728 885 1582 739 1470 851"/><polygon fill="#ff7b8a" points="1606 716 1752 862 1793 821 1647 675"/><polygon fill="#ff7b8a" points="1276 1316 1151 1191 1121 1346"/></svg>